<?xml version="1.0" encoding="utf-8"?>
<!-- Generator: Adobe Illustrator 19.0.0, SVG Export Plug-In . SVG Version: 6.00 Build 0)  -->
<svg version="1.1" id="Layer_1" xmlns="http://www.w3.org/2000/svg" xmlns:xlink="http://www.w3.org/1999/xlink" x="0px" y="0px"
	 viewBox="0 0 469.1 366" style="enable-background:new 0 0 469.1 366;" xml:space="preserve">
<style type="text/css">
	.st0{fill:url(#XMLID_54_);}
	.st1{fill:url(#XMLID_55_);}
	.st2{fill:url(#XMLID_56_);}
	.st3{fill:url(#XMLID_57_);}
	.st4{fill:url(#XMLID_58_);}
	.st5{fill:#004C45;}
	.st6{fill:url(#XMLID_59_);}
	.st7{fill:url(#XMLID_60_);}
	.st8{fill:url(#XMLID_61_);}
	.st9{fill:url(#XMLID_62_);}
	.st10{fill:url(#XMLID_63_);}
	.st11{fill:url(#XMLID_64_);}
	.st12{fill:url(#XMLID_65_);}
</style>
<g id="XMLID_425_">
	<linearGradient id="XMLID_54_" gradientUnits="userSpaceOnUse" x1="86.0892" y1="297.5044" x2="86.0892" y2="106.6012">
		<stop  offset="0" style="stop-color:#92001B"/>
		<stop  offset="0.5202" style="stop-color:#BF0027"/>
		<stop  offset="1" style="stop-color:#E80032"/>
	</linearGradient>
	<polygon id="XMLID_452_" class="st0" points="48.4,106.6 48.4,297.5 123.8,297.5 123.4,208.3 	"/>
	<linearGradient id="XMLID_55_" gradientUnits="userSpaceOnUse" x1="86.0892" y1="361.6735" x2="86.0892" y2="297.3038">
		<stop  offset="0" style="stop-color:#92001B"/>
		<stop  offset="1" style="stop-color:#E80032"/>
	</linearGradient>
	<rect id="XMLID_446_" x="8.5" y="297.3" class="st1" width="155.2" height="64.4"/>
	<linearGradient id="XMLID_56_" gradientUnits="userSpaceOnUse" x1="383.2725" y1="297.5044" x2="383.2725" y2="106.6012">
		<stop  offset="0" style="stop-color:#92001B"/>
		<stop  offset="1" style="stop-color:#E80032"/>
	</linearGradient>
	<polygon id="XMLID_440_" class="st2" points="421,106.6 421,297.5 345.6,297.5 346,208.3 	"/>
	<linearGradient id="XMLID_57_" gradientUnits="userSpaceOnUse" x1="7.482" y1="171.9735" x2="276.1902" y2="171.9735">
		<stop  offset="0" style="stop-color:#00C0B3"/>
		<stop  offset="1" style="stop-color:#00564E"/>
	</linearGradient>
	<polygon id="XMLID_439_" class="st3" points="7.5,9.5 235.3,334.4 276.2,274.2 98.9,9.5 	"/>
	<linearGradient id="XMLID_58_" gradientUnits="userSpaceOnUse" x1="463.8849" y1="141.4932" x2="235.2824" y2="141.4932">
		<stop  offset="0" style="stop-color:#00C0B3"/>
		<stop  offset="1" style="stop-color:#007065"/>
	</linearGradient>
	<polygon id="XMLID_438_" class="st4" points="276.2,274.2 235.3,213.3 370.8,8.7 463.9,9.5 	"/>
	<polygon id="XMLID_436_" class="st5" points="7.5,9.9 7.5,49.3 36.4,50.1 	"/>
	<polygon id="XMLID_434_" class="st5" points="437,47.4 462.7,48.2 463.9,9.5 	"/>
	<linearGradient id="XMLID_59_" gradientUnits="userSpaceOnUse" x1="383.5733" y1="361.6735" x2="383.5733" y2="297.3038">
		<stop  offset="0" style="stop-color:#92001B"/>
		<stop  offset="1" style="stop-color:#E80032"/>
	</linearGradient>
	<rect id="XMLID_433_" x="306" y="297.3" class="st6" width="155.2" height="64.4"/>
	<linearGradient id="XMLID_60_" gradientUnits="userSpaceOnUse" x1="94.2314" y1="281.4038" x2="26.8519" y2="164.6991">
		<stop  offset="0" style="stop-color:#9B2939"/>
		<stop  offset="1" style="stop-color:#E03B53"/>
	</linearGradient>
	<polygon id="XMLID_432_" class="st7" points="67,297.1 58,297.1 58,146.7 66.8,155.5 	"/>
	<linearGradient id="XMLID_61_" gradientUnits="userSpaceOnUse" x1="110.3229" y1="284.4392" x2="51.0187" y2="181.7214">
		<stop  offset="0" style="stop-color:#9B2939"/>
		<stop  offset="1" style="stop-color:#E03B53"/>
	</linearGradient>
	<polygon id="XMLID_431_" class="st8" points="87.7,297.5 78.7,297.5 78.7,165.8 87.2,176.5 	"/>
	<linearGradient id="XMLID_62_" gradientUnits="userSpaceOnUse" x1="123.9646" y1="288.5501" x2="81.0716" y2="214.2572">
		<stop  offset="0" style="stop-color:#9B2939"/>
		<stop  offset="1" style="stop-color:#E03B53"/>
	</linearGradient>
	<polygon id="XMLID_427_" class="st9" points="109.2,297.1 100.1,297.1 100.1,203.3 108.6,212.2 	"/>
	
		<linearGradient id="XMLID_63_" gradientUnits="userSpaceOnUse" x1="-7.5395" y1="281.4038" x2="-74.919" y2="164.6991" gradientTransform="matrix(-1 0 0 1 363.3797 0)">
		<stop  offset="0" style="stop-color:#9B2939"/>
		<stop  offset="1" style="stop-color:#E03B53"/>
	</linearGradient>
	<polyline id="XMLID_444_" class="st10" points="407.1,297.1 407.1,146.7 398.3,155.5 398.1,297.1 	"/>
	
		<linearGradient id="XMLID_64_" gradientUnits="userSpaceOnUse" x1="8.552" y1="284.4392" x2="-50.7521" y2="181.7214" gradientTransform="matrix(-1 0 0 1 363.3797 0)">
		<stop  offset="0" style="stop-color:#9B2939"/>
		<stop  offset="1" style="stop-color:#E03B53"/>
	</linearGradient>
	<polyline id="XMLID_445_" class="st11" points="386.5,297.5 386.5,165.8 378,176.5 377.5,297.5 	"/>
	
		<linearGradient id="XMLID_65_" gradientUnits="userSpaceOnUse" x1="22.1938" y1="288.5501" x2="-20.6993" y2="214.2572" gradientTransform="matrix(-1 0 0 1 363.3797 0)">
		<stop  offset="0" style="stop-color:#9B2939"/>
		<stop  offset="1" style="stop-color:#E03B53"/>
	</linearGradient>
	<polyline id="XMLID_454_" class="st12" points="365,297.1 365,203.3 356.5,212.2 356,297.1 	"/>
</g>
</svg>
